<svg width="28" height="28" viewBox="0 0 28 28" fill="none" xmlns="http://www.w3.org/2000/svg">
<path d="M19.1974 15.6387L19.1917 15.6362C19.1072 15.6006 19.0258 15.5592 18.9406 15.5254C19.8929 14.779 20.6632 13.8258 21.1931 12.738C21.723 11.6502 21.9987 10.4561 21.9994 9.24609C21.9963 8.96494 21.9764 8.68422 21.9398 8.40544C21.9603 8.35244 21.9771 8.29811 21.9903 8.24284L22.3653 5.04622C22.482 4.03623 22.2105 3.01963 21.6057 2.20234C21.0009 1.38506 20.1081 0.828186 19.1081 0.644531L18.0548 0.453118C15.3736 -0.036456 12.6259 -0.036456 9.94475 0.453118L8.89009 0.644531C7.89021 0.828325 6.99755 1.38525 6.3929 2.20252C5.78824 3.01979 5.51679 4.03632 5.63352 5.04622L6.00852 8.24284C6.02165 8.29813 6.0385 8.35248 6.05897 8.40551C6.02238 8.68426 6.00248 8.96496 5.99939 9.24609C6.00006 10.4561 6.27576 11.6502 6.80568 12.738C7.33559 13.8258 8.10585 14.7789 9.05824 15.5253C8.9729 15.5592 8.89157 15.6005 8.80709 15.6362L8.80139 15.6387C6.61845 16.5561 4.7209 18.0411 3.30578 19.9396C1.89065 21.8381 1.00954 24.0808 0.753955 26.4349C0.715622 26.7864 0.818512 27.1388 1.03999 27.4145C1.26147 27.6902 1.58339 27.8666 1.93494 27.9049C2.28649 27.9433 2.63887 27.8404 2.91456 27.6189C3.19025 27.3974 3.36666 27.0755 3.40499 26.724C3.5926 24.9935 4.20354 23.3359 5.18383 21.8976C6.16411 20.4593 7.48356 19.2846 9.0256 18.4773L13.0567 22.5085C13.1805 22.6323 13.3275 22.7305 13.4892 22.7976C13.651 22.8646 13.8243 22.8991 13.9994 22.8991C14.1745 22.8991 14.3479 22.8646 14.5097 22.7976C14.6714 22.7305 14.8184 22.6323 14.9421 22.5085L18.9732 18.4773C20.5152 19.2847 21.8347 20.4594 22.815 21.8976C23.7953 23.3359 24.4062 24.9935 24.5938 26.724C24.6294 27.0503 24.7841 27.3521 25.0283 27.5715C25.2725 27.7908 25.5891 27.9124 25.9174 27.9128C25.9663 27.9128 26.0152 27.9102 26.0638 27.905C26.4154 27.8666 26.7373 27.6902 26.9588 27.4145C27.1803 27.1389 27.2832 26.7865 27.2448 26.4349C26.9893 24.0809 26.1082 21.8382 24.693 19.9397C23.2779 18.0411 21.3803 16.5561 19.1974 15.6387ZM8.28194 4.73502C8.24311 4.39848 8.33361 4.05975 8.53512 3.78742C8.73662 3.51509 9.03408 3.3295 9.36728 3.26822L10.4213 3.07682C12.7871 2.64453 15.2117 2.64453 17.5776 3.07682L18.6309 3.26822C18.9642 3.32935 19.2618 3.51488 19.4634 3.78723C19.6651 4.05958 19.7557 4.39839 19.7168 4.73502L19.4798 6.75391H8.51893L8.28194 4.73502ZM13.9994 19.6803L11.799 17.48C13.2494 17.1681 14.7494 17.1681 16.1998 17.48L13.9994 19.6803ZM13.9994 14.5794C12.6156 14.5778 11.2864 14.0391 10.2921 13.0767C9.29766 12.1144 8.71567 10.8036 8.66873 9.42057H19.3302C19.2833 10.8036 18.7012 12.1144 17.7068 13.0768C16.7124 14.0391 15.3832 14.5778 13.9994 14.5794Z" fill="white"/>
</svg>
