<svg width="32" height="32" viewBox="0 0 32 32" fill="none" xmlns="http://www.w3.org/2000/svg">
<path d="M25.1 5.6H22.5V4.3C22.5 3.95522 22.363 3.62456 22.1192 3.38076C21.8754 3.13696 21.5448 3 21.2 3C20.8552 3 20.5246 3.13696 20.2808 3.38076C20.037 3.62456 19.9 3.95522 19.9 4.3V5.6H12.1V4.3C12.1 3.95522 11.963 3.62456 11.7192 3.38076C11.4754 3.13696 11.1448 3 10.8 3C10.4552 3 10.1246 3.13696 9.88076 3.38076C9.63696 3.62456 9.5 3.95522 9.5 4.3V5.6H6.9C5.86566 5.6 4.87368 6.01089 4.14228 6.74228C3.41089 7.47368 3 8.46566 3 9.5V25.1C3 26.1343 3.41089 27.1263 4.14228 27.8577C4.87368 28.5891 5.86566 29 6.9 29H25.1C26.1343 29 27.1263 28.5891 27.8577 27.8577C28.5891 27.1263 29 26.1343 29 25.1V9.5C29 8.46566 28.5891 7.47368 27.8577 6.74228C27.1263 6.01089 26.1343 5.6 25.1 5.6ZM26.4 25.1C26.4 25.4448 26.263 25.7754 26.0192 26.0192C25.7754 26.263 25.4448 26.4 25.1 26.4H6.9C6.55522 26.4 6.22456 26.263 5.98076 26.0192C5.73696 25.7754 5.6 25.4448 5.6 25.1V16H26.4V25.1ZM26.4 13.4H5.6V9.5C5.6 9.15522 5.73696 8.82456 5.98076 8.58076C6.22456 8.33696 6.55522 8.2 6.9 8.2H9.5V9.5C9.5 9.84478 9.63696 10.1754 9.88076 10.4192C10.1246 10.663 10.4552 10.8 10.8 10.8C11.1448 10.8 11.4754 10.663 11.7192 10.4192C11.963 10.1754 12.1 9.84478 12.1 9.5V8.2H19.9V9.5C19.9 9.84478 20.037 10.1754 20.2808 10.4192C20.5246 10.663 20.8552 10.8 21.2 10.8C21.5448 10.8 21.8754 10.663 22.1192 10.4192C22.363 10.1754 22.5 9.84478 22.5 9.5V8.2H25.1C25.4448 8.2 25.7754 8.33696 26.0192 8.58076C26.263 8.82456 26.4 9.15522 26.4 9.5V13.4Z" fill="#FFAA4C"/>
</svg>
