<svg width="80" height="80" viewBox="0 0 80 80" fill="none" xmlns="http://www.w3.org/2000/svg">
<path d="M55.3332 46.6668C54.6665 46.3335 50.3332 44.3335 49.6665 44.0002C48.9998 43.6668 48.3332 43.6668 47.6665 44.3335C46.9998 45.0002 45.6665 47.0002 44.9998 47.6668C44.6665 48.3335 43.9998 48.3335 43.3332 48.0002C40.9998 47.0002 38.6665 45.6668 36.6665 44.0002C34.9998 42.3335 33.3332 40.3335 31.9998 38.3335C31.6665 37.6668 31.9998 37.0002 32.3332 36.6668C32.6665 36.3335 32.9998 35.6668 33.6665 35.3335C33.9998 35.0002 34.3332 34.3335 34.3332 34.0002C34.6665 33.6668 34.6665 33.0002 34.3332 32.6668C33.9998 32.3335 32.3332 28.3335 31.6665 26.6668C31.3332 24.3335 30.6665 24.3335 29.9998 24.3335C29.6665 24.3335 28.9998 24.3335 28.3332 24.3335C27.6665 24.3335 26.6665 25.0002 26.3332 25.3335C24.3332 27.3335 23.3332 29.6668 23.3332 32.3335C23.6665 35.3335 24.6665 38.3335 26.6665 41.0002C30.3332 46.3335 34.9998 50.6668 40.6665 53.3335C42.3332 54.0002 43.6665 54.6668 45.3332 55.0002C46.9998 55.6668 48.6665 55.6668 50.6665 55.3335C52.9998 55.0002 54.9998 53.3335 56.3332 51.3335C56.9998 50.0002 56.9998 48.6668 56.6665 47.3335C56.6665 47.3335 55.9998 47.0002 55.3332 46.6668ZM63.6665 16.3335C50.6665 3.3335 29.6665 3.3335 16.6665 16.3335C5.99984 27.0002 3.99984 43.3335 11.3332 56.3335L6.6665 73.3335L24.3332 68.6668C29.3332 71.3335 34.6665 72.6668 39.9998 72.6668C58.3332 72.6668 72.9998 58.0002 72.9998 39.6668C73.3332 31.0002 69.6665 22.6668 63.6665 16.3335ZM54.6665 63.0002C50.3332 65.6668 45.3332 67.3335 39.9998 67.3335C34.9998 67.3335 30.3332 66.0002 25.9998 63.6668L24.9998 63.0002L14.6665 65.6668L17.3332 55.6668L16.6665 54.6668C8.6665 41.3335 12.6665 24.6668 25.6665 16.3335C38.6665 8.00016 55.3332 12.3335 63.3332 25.0002C71.3332 38.0002 67.6665 55.0002 54.6665 63.0002Z" fill="#FFAA4C"/>
</svg>
