<svg width="24" height="28" viewBox="0 0 24 28" fill="none" xmlns="http://www.w3.org/2000/svg">
<path d="M22.6668 8.66667L14.6668 1.65333C13.9334 0.997394 12.984 0.634758 12.0001 0.634758C11.0162 0.634758 10.0668 0.997394 9.33346 1.65333L1.33346 8.66667C0.909951 9.04543 0.571993 9.51008 0.342089 10.0297C0.112185 10.5492 -0.00439008 11.1118 0.000126392 11.68V23.3333C0.000126392 24.3942 0.421554 25.4116 1.1717 26.1618C1.92184 26.9119 2.93926 27.3333 4.00013 27.3333H20.0001C21.061 27.3333 22.0784 26.9119 22.8286 26.1618C23.5787 25.4116 24.0001 24.3942 24.0001 23.3333V11.6667C24.0027 11.1008 23.8853 10.5407 23.6554 10.0236C23.4256 9.50643 23.0886 9.04394 22.6668 8.66667ZM14.6668 24.6667H9.33346V18C9.33346 17.6464 9.47394 17.3072 9.72398 17.0572C9.97403 16.8071 10.3132 16.6667 10.6668 16.6667H13.3335C13.6871 16.6667 14.0262 16.8071 14.2763 17.0572C14.5263 17.3072 14.6668 17.6464 14.6668 18V24.6667ZM21.3335 23.3333C21.3335 23.687 21.193 24.0261 20.9429 24.2761C20.6929 24.5262 20.3537 24.6667 20.0001 24.6667H17.3335V18C17.3335 16.9391 16.912 15.9217 16.1619 15.1716C15.4117 14.4214 14.3943 14 13.3335 14H10.6668C9.60593 14 8.58851 14.4214 7.83837 15.1716C7.08822 15.9217 6.66679 16.9391 6.66679 18V24.6667H4.00013C3.6465 24.6667 3.30737 24.5262 3.05732 24.2761C2.80727 24.0261 2.66679 23.687 2.66679 23.3333V11.6667C2.66703 11.4774 2.70758 11.2903 2.78575 11.1178C2.86391 10.9454 2.9779 10.7916 3.12013 10.6667L11.1201 3.66667C11.3634 3.45291 11.6762 3.33502 12.0001 3.33502C12.324 3.33502 12.6368 3.45291 12.8801 3.66667L20.8801 10.6667C21.0224 10.7916 21.1363 10.9454 21.2145 11.1178C21.2927 11.2903 21.3332 11.4774 21.3335 11.6667V23.3333Z" fill="white"/>
</svg>
