<svg width="32" height="32" viewBox="0 0 32 32" fill="none" xmlns="http://www.w3.org/2000/svg">
<path d="M13.4 18.6667H18.6C18.9448 18.6667 19.2754 18.5262 19.5192 18.2761C19.763 18.0261 19.9 17.687 19.9 17.3333C19.9 16.9797 19.763 16.6406 19.5192 16.3905C19.2754 16.1405 18.9448 16 18.6 16H13.4C13.0552 16 12.7246 16.1405 12.4808 16.3905C12.237 16.6406 12.1 16.9797 12.1 17.3333C12.1 17.687 12.237 18.0261 12.4808 18.2761C12.7246 18.5262 13.0552 18.6667 13.4 18.6667ZM25.1 4H6.9C5.86566 4 4.87368 4.42143 4.14228 5.17157C3.41089 5.92172 3 6.93913 3 8V12C3 12.3536 3.13696 12.6928 3.38076 12.9428C3.62456 13.1929 3.95522 13.3333 4.3 13.3333H5.6V24C5.6 25.0609 6.01089 26.0783 6.74228 26.8284C7.47368 27.5786 8.46566 28 9.5 28H22.5C23.5343 28 24.5263 27.5786 25.2577 26.8284C25.9891 26.0783 26.4 25.0609 26.4 24V13.3333H27.7C28.0448 13.3333 28.3754 13.1929 28.6192 12.9428C28.863 12.6928 29 12.3536 29 12V8C29 6.93913 28.5891 5.92172 27.8577 5.17157C27.1263 4.42143 26.1343 4 25.1 4ZM23.8 24C23.8 24.3536 23.663 24.6928 23.4192 24.9428C23.1754 25.1929 22.8448 25.3333 22.5 25.3333H9.5C9.15522 25.3333 8.82456 25.1929 8.58076 24.9428C8.33696 24.6928 8.2 24.3536 8.2 24V13.3333H23.8V24ZM26.4 10.6667H5.6V8C5.6 7.64638 5.73696 7.30724 5.98076 7.05719C6.22456 6.80714 6.55522 6.66667 6.9 6.66667H25.1C25.4448 6.66667 25.7754 6.80714 26.0192 7.05719C26.263 7.30724 26.4 7.64638 26.4 8V10.6667Z" fill="#0B64AF"/>
</svg>
