<svg width="26" height="26" viewBox="0 0 26 26" fill="none" xmlns="http://www.w3.org/2000/svg">
<path d="M3.6237 3.625H22.3737C22.65 3.625 22.9149 3.73475 23.1103 3.9301C23.3056 4.12545 23.4154 4.3904 23.4154 4.66667V21.3333C23.4154 21.6096 23.3056 21.8746 23.1103 22.0699C22.9149 22.2653 22.65 22.375 22.3737 22.375H3.6237C3.34743 22.375 3.08248 22.2653 2.88713 22.0699C2.69178 21.8746 2.58203 21.6096 2.58203 21.3333V4.66667C2.58203 4.3904 2.69178 4.12545 2.88713 3.9301C3.08248 3.73475 3.34743 3.625 3.6237 3.625ZM13.0612 12.6698L6.38203 6.99792L5.03307 8.58542L13.0747 15.4135L20.9716 8.58021L19.6091 7.00417L13.0622 12.6698H13.0612Z" fill="white"/>
</svg>
