<svg width="80" height="80" viewBox="0 0 80 80" fill="none" xmlns="http://www.w3.org/2000/svg">
<path d="M39.9808 6.66675C33.3881 6.66675 26.9434 8.62171 21.4618 12.2844C15.9802 15.9471 11.7077 21.1531 9.18482 27.244C6.6619 33.3348 6.00179 40.0371 7.28797 46.5031C8.57414 52.9691 11.7488 58.9086 16.4106 63.5703C21.0723 68.2321 27.0118 71.4068 33.4778 72.6929C39.9438 73.9791 46.6461 73.319 52.7369 70.7961C58.8278 68.2732 64.0337 64.0007 67.6965 58.5191C71.3592 53.0375 73.3141 46.5928 73.3141 40.0001C73.3145 35.6226 72.4526 31.2879 70.7775 27.2435C69.1025 23.1992 66.6472 19.5244 63.5518 16.429C60.4565 13.3337 56.7817 10.8784 52.7374 9.20336C48.693 7.52833 44.3583 6.66638 39.9808 6.66675ZM50.5792 57.175C50.4544 57.4861 50.2646 57.7669 50.0224 57.9987C49.7802 58.2304 49.4913 58.4077 49.175 58.5186C48.8587 58.6296 48.5224 58.6716 48.1885 58.642C47.8546 58.6123 47.531 58.5116 47.2392 58.3466L38.1903 51.3154L32.3825 56.6734C32.2478 56.773 32.0901 56.8371 31.9241 56.8597C31.7581 56.8824 31.5891 56.863 31.4325 56.8032L32.5459 46.8417L32.5815 46.8699L32.6043 46.6733C32.6043 46.6733 48.8876 31.8482 49.5509 31.2166C50.2225 30.5866 50.0009 30.4499 50.0009 30.4499C50.0392 29.6815 48.7959 30.4499 48.7959 30.4499L27.2208 44.3301L18.2358 41.2701C18.2358 41.2701 16.8558 40.7751 16.7258 39.6867C16.5892 38.6068 18.2808 38.0201 18.2808 38.0201L54.0041 23.8284C54.0041 23.8284 56.9408 22.52 56.9408 24.6867L50.5792 57.175Z" fill="#FFAA4C"/>
</svg>
