<svg width="20" height="28" viewBox="0 0 20 28" fill="none" xmlns="http://www.w3.org/2000/svg">
<path d="M18.0003 14H13.8803C15.6384 12.2231 16.6376 9.83279 16.667 7.33332C16.667 5.56521 15.9646 3.86952 14.7144 2.61928C13.4641 1.36904 11.7684 0.666656 10.0003 0.666656C8.23222 0.666656 6.53652 1.36904 5.28628 2.61928C4.03604 3.86952 3.33366 5.56521 3.33366 7.33332C3.36309 9.83279 4.36224 12.2231 6.12033 14H2.00033C1.6467 14 1.30757 14.1405 1.05752 14.3905C0.807468 14.6406 0.666992 14.9797 0.666992 15.3333C0.666992 15.6869 0.807468 16.0261 1.05752 16.2761C1.30757 16.5262 1.6467 16.6667 2.00033 16.6667H8.66699V26C8.66699 26.3536 8.80747 26.6928 9.05752 26.9428C9.30757 27.1929 9.6467 27.3333 10.0003 27.3333C10.3539 27.3333 10.6931 27.1929 10.9431 26.9428C11.1932 26.6928 11.3337 26.3536 11.3337 26V16.6667H18.0003C18.3539 16.6667 18.6931 16.5262 18.9431 16.2761C19.1932 16.0261 19.3337 15.6869 19.3337 15.3333C19.3337 14.9797 19.1932 14.6406 18.9431 14.3905C18.6931 14.1405 18.3539 14 18.0003 14ZM10.0003 13.7867C8.76033 12.96 6.00033 10.7733 6.00033 7.33332C6.00033 6.27246 6.42175 5.25504 7.1719 4.5049C7.92204 3.75475 8.93946 3.33332 10.0003 3.33332C11.0612 3.33332 12.0786 3.75475 12.8288 4.5049C13.5789 5.25504 14.0003 6.27246 14.0003 7.33332C14.0003 10.7733 11.2403 12.9733 10.0003 13.7867Z" fill="white"/>
</svg>
