<svg width="23" height="23" viewBox="0 0 23 23" fill="none" xmlns="http://www.w3.org/2000/svg">
<path d="M21.1664 0.999689C20.6801 0.999689 20.2138 1.19284 19.87 1.53666C19.5262 1.88048 19.333 2.34679 19.333 2.83302V16.748L4.13469 1.53136C3.78947 1.18613 3.32124 0.992187 2.83302 0.992188C2.3448 0.992188 1.87658 1.18613 1.53136 1.53136C1.18613 1.87658 0.992188 2.3448 0.992188 2.83302C0.992187 3.32124 1.18613 3.78947 1.53136 4.13469L16.748 19.333H2.83302C2.34679 19.333 1.88048 19.5262 1.53666 19.87C1.19284 20.2138 0.999689 20.6801 0.999689 21.1664C0.999689 21.6526 1.19284 22.1189 1.53666 22.4627C1.88048 22.8065 2.34679 22.9997 2.83302 22.9997H21.1664C21.4059 22.9968 21.6426 22.947 21.863 22.853C22.311 22.667 22.667 22.311 22.853 21.863C22.947 21.6426 22.9968 21.4059 22.9997 21.1664V2.83302C22.9997 2.34679 22.8065 1.88048 22.4627 1.53666C22.1189 1.19284 21.6526 0.999689 21.1664 0.999689Z" fill="white"/>
</svg>
