<svg width="30" height="23" viewBox="0 0 30 23" fill="none" xmlns="http://www.w3.org/2000/svg">
<path d="M26.52 16.0291C27.2547 15.1905 27.6618 14.1149 27.6663 13C27.6663 11.7623 27.1747 10.5753 26.2995 9.70017C25.4243 8.825 24.2374 8.33334 22.9997 8.33334C21.762 8.33334 20.575 8.825 19.6998 9.70017C18.8247 10.5753 18.333 11.7623 18.333 13C18.3375 14.1149 18.7446 15.1905 19.4793 16.0291C18.5193 16.6243 17.7267 17.4541 17.1762 18.4405C16.6258 19.4268 16.3356 20.5371 16.333 21.6667C16.333 22.0203 16.4735 22.3594 16.7235 22.6095C16.9736 22.8595 17.3127 23 17.6663 23C18.02 23 18.3591 22.8595 18.6091 22.6095C18.8592 22.3594 18.9997 22.0203 18.9997 21.6667C18.9997 20.6058 19.4211 19.5884 20.1712 18.8382C20.9214 18.0881 21.9388 17.6667 22.9997 17.6667C24.0605 17.6667 25.078 18.0881 25.8281 18.8382C26.5782 19.5884 26.9997 20.6058 26.9997 21.6667C26.9997 22.0203 27.1401 22.3594 27.3902 22.6095C27.6402 22.8595 27.9794 23 28.333 23C28.6866 23 29.0258 22.8595 29.2758 22.6095C29.5259 22.3594 29.6663 22.0203 29.6663 21.6667C29.6638 20.5371 29.3736 19.4268 28.8231 18.4405C28.2726 17.4541 27.48 16.6243 26.52 16.0291ZM22.9997 15C22.6041 15 22.2174 14.8827 21.8885 14.6629C21.5596 14.4432 21.3033 14.1308 21.1519 13.7654C21.0005 13.3999 20.9609 12.9978 21.0381 12.6098C21.1153 12.2219 21.3058 11.8655 21.5855 11.5858C21.8652 11.3061 22.2215 11.1156 22.6095 11.0384C22.9975 10.9613 23.3996 11.0009 23.765 11.1522C24.1305 11.3036 24.4428 11.56 24.6626 11.8889C24.8824 12.2178 24.9997 12.6044 24.9997 13C24.9991 13.5303 24.7882 14.0386 24.4132 14.4136C24.0383 14.7885 23.5299 14.9994 22.9997 15ZM8.05737 5.27646L10.7237 7.94267C10.9745 8.18895 11.3124 8.32623 11.6638 8.32464C12.0153 8.32305 12.352 8.18271 12.6005 7.93417C12.849 7.68563 12.9894 7.34899 12.991 6.9975C12.9926 6.64601 12.8553 6.30812 12.609 6.05734L12.2184 5.66667H17.7809L17.3903 6.05734C17.2652 6.18085 17.1658 6.32788 17.0977 6.48997C17.0297 6.65205 16.9944 6.82599 16.9939 7.00177C16.9933 7.17755 17.0275 7.35171 17.0945 7.51421C17.1616 7.67672 17.26 7.82437 17.3843 7.94866C17.5086 8.07296 17.6563 8.17144 17.8188 8.23845C17.9813 8.30546 18.1555 8.33967 18.3313 8.33912C18.507 8.33856 18.681 8.30325 18.8431 8.23521C19.0051 8.16717 19.1522 8.06775 19.2757 7.94267L21.9419 5.27642C22.191 5.02573 22.3308 4.68669 22.3308 4.3333C22.3308 3.9799 22.191 3.64086 21.9419 3.39018L19.2757 0.724004C19.0249 0.477724 18.687 0.340444 18.3355 0.342036C17.984 0.343628 17.6474 0.483961 17.3988 0.732503C17.1503 0.981045 17.01 1.31768 17.0084 1.66917C17.0068 2.02066 17.1441 2.35855 17.3903 2.60934L17.781 3H12.2184L12.6091 2.60934C12.8565 2.35878 12.9947 2.02051 12.9936 1.66838C12.9925 1.31625 12.8521 0.978866 12.6031 0.729878C12.3541 0.48089 12.0167 0.340524 11.6646 0.339423C11.3125 0.338323 10.9742 0.476577 10.7237 0.724004L8.05737 3.39022C7.80828 3.6409 7.66848 3.97994 7.66848 4.33334C7.66848 4.68673 7.80828 5.02577 8.05737 5.27646ZM10.52 16.0291C11.2548 15.1905 11.6618 14.1149 11.6663 13C11.6663 11.7623 11.1747 10.5753 10.2995 9.70017C9.42434 8.825 8.23735 8.33334 6.99967 8.33334C5.762 8.33334 4.57501 8.825 3.69984 9.70017C2.82467 10.5753 2.33301 11.7623 2.33301 13C2.33752 14.1149 2.74461 15.1905 3.47933 16.0291C2.51931 16.6243 1.72671 17.4541 1.17623 18.4405C0.625763 19.4268 0.335567 20.5371 0.333008 21.6667C0.333008 22.0203 0.473484 22.3594 0.723532 22.6095C0.97358 22.8595 1.31272 23 1.66634 23C2.01996 23 2.3591 22.8595 2.60915 22.6095C2.8592 22.3594 2.99967 22.0203 2.99967 21.6667C2.99967 20.6058 3.4211 19.5884 4.17125 18.8382C4.92139 18.0881 5.93881 17.6667 6.99967 17.6667C8.06054 17.6667 9.07796 18.0881 9.8281 18.8382C10.5782 19.5884 10.9997 20.6058 10.9997 21.6667C10.9997 22.0203 11.1402 22.3594 11.3902 22.6095C11.6402 22.8595 11.9794 23 12.333 23C12.6866 23 13.0258 22.8595 13.2758 22.6095C13.5259 22.3594 13.6663 22.0203 13.6663 21.6667C13.6638 20.5371 13.3736 19.4268 12.8231 18.4405C12.2726 17.4541 11.48 16.6243 10.52 16.0291H10.52ZM6.99967 15C6.60411 15 6.21743 14.8827 5.88853 14.6629C5.55964 14.4432 5.30329 14.1308 5.15192 13.7654C5.00054 13.3999 4.96093 12.9978 5.0381 12.6098C5.11527 12.2219 5.30576 11.8655 5.58546 11.5858C5.86517 11.3061 6.22153 11.1156 6.60949 11.0384C6.99746 10.9613 7.39959 11.0009 7.76504 11.1522C8.13049 11.3036 8.44285 11.56 8.66261 11.8889C8.88238 12.2178 8.99967 12.6044 8.99967 13C8.99909 13.5303 8.7882 14.0386 8.41325 14.4136C8.0383 14.7885 7.52993 14.9994 6.99967 15Z" fill="white"/>
</svg>
