<svg width="26" height="26" viewBox="0 0 26 26" fill="none" xmlns="http://www.w3.org/2000/svg">
<path d="M12.9987 2.58398C15.8289 2.58398 16.182 2.5944 17.2924 2.64648C18.4018 2.69857 19.157 2.87253 19.8216 3.13086C20.5091 3.39544 21.0883 3.75378 21.6674 4.3319C22.1971 4.85263 22.607 5.48251 22.8685 6.17773C23.1258 6.84128 23.3008 7.59753 23.3529 8.7069C23.4018 9.81732 23.4154 10.1704 23.4154 13.0007C23.4154 15.8309 23.4049 16.184 23.3529 17.2944C23.3008 18.4038 23.1258 19.159 22.8685 19.8236C22.6077 20.5192 22.1978 21.1492 21.6674 21.6694C21.1466 22.1989 20.5167 22.6087 19.8216 22.8704C19.1581 23.1277 18.4018 23.3027 17.2924 23.3548C16.182 23.4038 15.8289 23.4173 12.9987 23.4173C10.1685 23.4173 9.81536 23.4069 8.70495 23.3548C7.59557 23.3027 6.84036 23.1277 6.17578 22.8704C5.48029 22.6095 4.85029 22.1996 4.32995 21.6694C3.80016 21.1488 3.39029 20.5188 3.12891 19.8236C2.87057 19.16 2.69661 18.4038 2.64453 17.2944C2.59557 16.184 2.58203 15.8309 2.58203 13.0007C2.58203 10.1704 2.59245 9.81732 2.64453 8.7069C2.69661 7.59648 2.87057 6.84232 3.12891 6.17773C3.38957 5.48209 3.79954 4.85203 4.32995 4.3319C4.85044 3.80193 5.48039 3.39204 6.17578 3.13086C6.84036 2.87253 7.59453 2.69857 8.70495 2.64648C9.81536 2.59753 10.1685 2.58398 12.9987 2.58398ZM12.9987 7.79232C11.6174 7.79232 10.2926 8.34105 9.31585 9.3178C8.3391 10.2946 7.79037 11.6193 7.79037 13.0007C7.79037 14.382 8.3391 15.7067 9.31585 16.6835C10.2926 17.6603 11.6174 18.209 12.9987 18.209C14.38 18.209 15.7048 17.6603 16.6815 16.6835C17.6583 15.7067 18.207 14.382 18.207 13.0007C18.207 11.6193 17.6583 10.2946 16.6815 9.3178C15.7048 8.34105 14.38 7.79232 12.9987 7.79232ZM19.7695 7.5319C19.7695 7.18657 19.6324 6.85538 19.3882 6.61119C19.144 6.367 18.8128 6.22982 18.4674 6.22982C18.1221 6.22982 17.7909 6.367 17.5467 6.61119C17.3025 6.85538 17.1654 7.18657 17.1654 7.5319C17.1654 7.87724 17.3025 8.20843 17.5467 8.45261C17.7909 8.6968 18.1221 8.83398 18.4674 8.83398C18.8128 8.83398 19.144 8.6968 19.3882 8.45261C19.6324 8.20843 19.7695 7.87724 19.7695 7.5319ZM12.9987 9.87565C13.8275 9.87565 14.6224 10.2049 15.2084 10.7909C15.7945 11.377 16.1237 12.1719 16.1237 13.0007C16.1237 13.8295 15.7945 14.6243 15.2084 15.2104C14.6224 15.7964 13.8275 16.1257 12.9987 16.1257C12.1699 16.1257 11.375 15.7964 10.789 15.2104C10.2029 14.6243 9.8737 13.8295 9.8737 13.0007C9.8737 12.1719 10.2029 11.377 10.789 10.7909C11.375 10.2049 12.1699 9.87565 12.9987 9.87565Z" fill="white"/>
</svg>
