<svg width="80" height="80" viewBox="0 0 80 80" fill="none" xmlns="http://www.w3.org/2000/svg">
<path d="M73.3332 19.3333C70.8276 20.4203 68.1779 21.1388 65.4665 21.4666C68.3271 19.7577 70.4707 17.0692 71.4998 13.9C68.8117 15.5002 65.869 16.6276 62.7998 17.2333C60.7483 15.0085 58.0164 13.5276 55.0325 13.0228C52.0487 12.518 48.9817 13.0178 46.3125 14.4439C43.6433 15.87 41.5229 18.1417 40.284 20.9028C39.045 23.6638 38.7575 26.7579 39.4665 29.7C34.0313 29.4251 28.7146 28.0098 23.862 25.5462C19.0094 23.0825 14.7293 19.6256 11.2998 15.4C10.097 17.5005 9.4649 19.8794 9.4665 22.3C9.46224 24.5479 10.0139 26.762 11.0724 28.7452C12.1308 30.7283 13.6632 32.419 15.5332 33.6666C13.3598 33.6075 11.2328 33.0243 9.33317 31.9666V32.1333C9.34946 35.2829 10.4532 38.3303 12.4576 40.7599C14.462 43.1894 17.244 44.8521 20.3332 45.4666C19.144 45.8285 17.9094 46.0193 16.6665 46.0333C15.8061 46.0233 14.9479 45.9452 14.0998 45.8C14.9795 48.5093 16.6819 50.8771 18.9701 52.5738C21.2583 54.2705 24.0184 55.2118 26.8665 55.2666C22.0572 59.0509 16.1194 61.1162 9.99984 61.1333C8.88562 61.137 7.77229 61.0702 6.6665 60.9333C12.9146 64.9675 20.1959 67.109 27.6332 67.1C32.7655 67.1533 37.857 66.1834 42.6102 64.2469C47.3635 62.3104 51.6832 59.4463 55.3172 55.8216C58.9511 52.197 61.8264 47.8846 63.775 43.1363C65.7237 38.388 66.7066 33.2991 66.6665 28.1666C66.6665 27.6 66.6665 27 66.6665 26.4C69.2822 24.4493 71.5381 22.0581 73.3332 19.3333Z" fill="#FFAA4C"/>
</svg>
