<svg width="26" height="26" viewBox="0 0 26 26" fill="none" xmlns="http://www.w3.org/2000/svg">
<path d="M12.9987 2.58398C7.24349 2.58398 2.58203 7.24544 2.58203 13.0007C2.58085 15.1874 3.2683 17.319 4.54684 19.093C5.82538 20.8671 7.6301 22.1934 9.70495 22.884C10.2258 22.9746 10.4206 22.6621 10.4206 22.3881C10.4206 22.1413 10.407 21.3215 10.407 20.4486C7.79037 20.9309 7.11328 19.8111 6.90495 19.2246C6.78724 18.9246 6.27995 18.0007 5.83724 17.7527C5.47266 17.5579 4.95182 17.0757 5.8237 17.0632C6.64453 17.0496 7.22995 17.8184 7.42578 18.1309C8.36328 19.7059 9.8612 19.2632 10.4591 18.9902C10.5508 18.3132 10.8237 17.8579 11.1237 17.5975C8.80599 17.3371 6.38412 16.4382 6.38412 12.4538C6.38412 11.3204 6.78724 10.384 7.45182 9.65378C7.34766 9.39336 6.98307 8.32565 7.55599 6.89336C7.55599 6.89336 8.42787 6.62044 10.4206 7.96211C11.2686 7.72676 12.1447 7.6083 13.0247 7.61003C13.9102 7.61003 14.7956 7.72669 15.6289 7.96107C17.6206 6.6069 18.4935 6.8944 18.4935 6.8944C19.0664 8.32669 18.7018 9.3944 18.5977 9.65482C19.2612 10.384 19.6654 11.3079 19.6654 12.4538C19.6654 16.4517 17.231 17.3371 14.9133 17.5975C15.2904 17.9225 15.6164 18.5475 15.6164 19.5246C15.6164 20.9173 15.6029 22.0371 15.6029 22.3892C15.6029 22.6621 15.7987 22.9871 16.3195 22.8829C18.3873 22.1848 20.184 20.8559 21.4569 19.0831C22.7298 17.3103 23.4148 15.1831 23.4154 13.0007C23.4154 7.24544 18.7539 2.58398 12.9987 2.58398Z" fill="white"/>
</svg>
