<svg width="24" height="24" viewBox="0 0 24 24" fill="none" xmlns="http://www.w3.org/2000/svg">
<path d="M20.1598 4.99992C19.0998 3.93713 17.6946 3.28846 16.1981 3.17109C14.7017 3.05372 13.2126 3.47539 11.9998 4.35992C10.7274 3.41356 9.14378 2.98443 7.56771 3.15896C5.99164 3.33348 4.54023 4.0987 3.50576 5.30051C2.47129 6.50231 1.93061 8.05144 1.99259 9.63594C2.05457 11.2204 2.71461 12.7226 3.83979 13.8399L10.0498 20.0599C10.5698 20.5717 11.2702 20.8585 11.9998 20.8585C12.7294 20.8585 13.4298 20.5717 13.9498 20.0599L20.1598 13.8399C21.3274 12.6652 21.9827 11.0762 21.9827 9.41992C21.9827 7.76365 21.3274 6.17465 20.1598 4.99992ZM18.7498 12.4599L12.5398 18.6699C12.4691 18.7413 12.385 18.7979 12.2923 18.8366C12.1996 18.8752 12.1002 18.8951 11.9998 18.8951C11.8994 18.8951 11.7999 18.8752 11.7072 18.8366C11.6146 18.7979 11.5305 18.7413 11.4598 18.6699L5.24979 12.4299C4.46555 11.6283 4.0264 10.5514 4.0264 9.42992C4.0264 8.30846 4.46555 7.23158 5.24979 6.42992C6.04894 5.64091 7.12676 5.19849 8.24979 5.19849C9.37281 5.19849 10.4506 5.64091 11.2498 6.42992C11.3428 6.52365 11.4534 6.59804 11.5752 6.64881C11.6971 6.69958 11.8278 6.72572 11.9598 6.72572C12.0918 6.72572 12.2225 6.69958 12.3444 6.64881C12.4662 6.59804 12.5768 6.52365 12.6698 6.42992C13.4689 5.64091 14.5468 5.19849 15.6698 5.19849C16.7928 5.19849 17.8706 5.64091 18.6698 6.42992C19.4648 7.22107 19.9184 8.29211 19.9333 9.41361C19.9483 10.5351 19.5234 11.6179 18.7498 12.4299V12.4599Z" fill="white"/>
</svg>
