<svg width="28" height="28" viewBox="0 0 28 28" fill="none" xmlns="http://www.w3.org/2000/svg">
<path d="M14.0001 18.6667C13.7364 18.6667 13.4786 18.7449 13.2594 18.8914C13.0401 19.0379 12.8692 19.2461 12.7683 19.4897C12.6674 19.7334 12.641 20.0015 12.6924 20.2601C12.7439 20.5188 12.8709 20.7563 13.0573 20.9428C13.2438 21.1293 13.4814 21.2563 13.74 21.3077C13.9987 21.3592 14.2667 21.3327 14.5104 21.2318C14.754 21.1309 14.9623 20.96 15.1088 20.7408C15.2553 20.5215 15.3335 20.2637 15.3335 20C15.3335 19.6464 15.193 19.3072 14.9429 19.0572C14.6929 18.8071 14.3538 18.6667 14.0001 18.6667ZM14.0001 0.666659C13.75 0.666652 13.5001 0.679335 13.2513 0.704659C9.78611 0.897491 6.53292 2.43468 4.18372 4.98924C1.83452 7.5438 0.574702 10.9141 0.672264 14.3833C0.769825 17.8524 2.21706 21.1466 4.70612 23.5651C7.19518 25.9836 10.5296 27.3355 14.0001 27.3333C14.2502 27.3333 14.5002 27.3207 14.749 27.2953C18.2142 27.1025 21.4674 25.5653 23.8166 23.0107C26.1658 20.4562 27.4256 17.0859 27.328 13.6167C27.2304 10.1476 25.7832 6.85336 23.2942 4.43487C20.8051 2.01637 17.4707 0.664442 14.0001 0.666659ZM14.0001 24.6667C11.8346 24.6697 9.7195 24.0125 7.93691 22.7829C6.15431 21.5532 4.78887 19.8094 4.02259 17.7839C3.25631 15.7584 3.12561 13.5475 3.64789 11.4458C4.17018 9.34419 5.32065 7.45164 6.94594 6.0205C6.63589 7.11013 6.58327 8.25689 6.79224 9.37033C7.00121 10.4838 7.46605 11.5334 8.15009 12.4365C8.83413 13.3395 9.71865 14.0713 10.7339 14.574C11.7491 15.0767 12.8673 15.3367 14.0001 15.3333C15.2378 15.3333 16.4248 15.825 17.3 16.7002C18.1751 17.5753 18.6668 18.7623 18.6668 20C18.6668 21.2377 18.1751 22.4247 17.3 23.2998C16.4248 24.175 15.2378 24.6667 14.0001 24.6667ZM21.0543 21.9795C21.3644 20.8899 21.417 19.7431 21.208 18.6297C20.9991 17.5162 20.5342 16.4666 19.8502 15.5635C19.1661 14.6605 18.2816 13.9287 17.2664 13.426C16.2512 12.9233 15.133 12.6633 14.0001 12.6667C12.7625 12.6667 11.5755 12.175 10.7003 11.2998C9.82514 10.4247 9.33347 9.23767 9.33347 7.99999C9.33347 6.76232 9.82514 5.57533 10.7003 4.70016C11.5755 3.82499 12.7625 3.33333 14.0001 3.33333C16.1657 3.33031 18.2808 3.98744 20.0634 5.21712C21.846 6.4468 23.2114 8.1906 23.9777 10.2161C24.744 12.2416 24.8747 14.4525 24.3524 16.5541C23.8301 18.6558 22.6796 20.5483 21.0543 21.9795ZM14.0001 6.66666C13.7364 6.66666 13.4786 6.74486 13.2594 6.89137C13.0401 7.03788 12.8692 7.24611 12.7683 7.48975C12.6674 7.73338 12.641 8.00147 12.6924 8.26011C12.7439 8.51875 12.8709 8.75633 13.0573 8.9428C13.2438 9.12927 13.4814 9.25626 13.74 9.30771C13.9987 9.35915 14.2667 9.33275 14.5104 9.23183C14.754 9.13092 14.9623 8.96002 15.1088 8.74075C15.2553 8.52149 15.3335 8.2637 15.3335 7.99999C15.3335 7.64637 15.193 7.30723 14.9429 7.05718C14.6929 6.80714 14.3538 6.66666 14.0001 6.66666Z" fill="white"/>
</svg>
