<svg width="28" height="28" viewBox="0 0 28 28" fill="none" xmlns="http://www.w3.org/2000/svg">
<path d="M9.34646 14.64C9.08275 14.64 8.82496 14.7182 8.6057 14.8647C8.38643 15.0112 8.21554 15.2195 8.11462 15.4631C8.0137 15.7067 7.9873 15.9748 8.03875 16.2335C8.09019 16.4921 8.21718 16.7297 8.40365 16.9161C8.59012 17.1026 8.8277 17.2296 9.08634 17.281C9.34498 17.3325 9.61307 17.3061 9.8567 17.2052C10.1003 17.1043 10.3086 16.9334 10.4551 16.7141C10.6016 16.4948 10.6798 16.237 10.6798 15.9733C10.6798 15.6197 10.5393 15.2806 10.2893 15.0305C10.0392 14.7805 9.70008 14.64 9.34646 14.64ZM9.34646 8.66667C9.08275 8.66667 8.82496 8.74487 8.6057 8.89138C8.38643 9.03788 8.21554 9.24612 8.11462 9.48976C8.0137 9.73339 7.9873 10.0015 8.03875 10.2601C8.09019 10.5188 8.21718 10.7563 8.40365 10.9428C8.59012 11.1293 8.8277 11.2563 9.08634 11.3077C9.34498 11.3592 9.61307 11.3328 9.8567 11.2318C10.1003 11.1309 10.3086 10.96 10.4551 10.7408C10.6016 10.5215 10.6798 10.2637 10.6798 10C10.6798 9.64638 10.5393 9.30724 10.2893 9.05719C10.0392 8.80715 9.70008 8.66667 9.34646 8.66667ZM13.9998 11.3333C13.6462 11.3333 13.307 11.4738 13.057 11.7239C12.8069 11.9739 12.6665 12.313 12.6665 12.6667V14C12.6665 14.3536 12.8069 14.6928 13.057 14.9428C13.307 15.1929 13.6462 15.3333 13.9998 15.3333C14.3534 15.3333 14.6926 15.1929 14.9426 14.9428C15.1927 14.6928 15.3331 14.3536 15.3331 14V12.6667C15.3331 12.313 15.1927 11.9739 14.9426 11.7239C14.6926 11.4738 14.3534 11.3333 13.9998 11.3333ZM25.3331 9.42667C24.8732 9.16202 24.3651 8.99154 23.8386 8.92515C23.3122 8.85877 22.7777 8.89781 22.2665 9.04C21.7344 9.18253 21.2389 9.4371 20.8131 9.78667L5.34646 0.840002C5.14377 0.722978 4.91384 0.661369 4.67979 0.661369C4.44574 0.661369 4.21582 0.722978 4.01313 0.840002C3.80717 0.95577 3.63568 1.12418 3.51619 1.32801C3.39671 1.53183 3.33353 1.76374 3.33313 2V19.56C2.54627 19.8254 1.86402 20.3339 1.38476 21.012C0.905492 21.6902 0.653972 22.503 0.666459 23.3333C0.666088 24.376 1.07284 25.3776 1.80007 26.1247C2.5273 26.8719 3.51752 27.3055 4.55979 27.3333H5.33313C9.70211 27.3231 13.9906 26.1569 17.7632 23.9533C21.5357 21.7498 24.6581 18.5872 26.8131 14.7867C27.3109 13.8773 27.4361 12.8103 27.1625 11.8104C26.8889 10.8105 26.2378 9.9559 25.3465 9.42667H25.3331ZM5.99979 4.30667L19.1865 11.92C17.7235 14.103 15.7678 15.9113 13.4771 17.1991C11.1865 18.4869 8.62508 19.2179 5.99979 19.3333V4.30667ZM24.4931 13.48C22.5137 16.9676 19.623 19.851 16.1304 21.8216C12.6379 23.7922 8.6751 24.7756 4.66646 24.6667C4.31284 24.6667 3.9737 24.5262 3.72365 24.2761C3.4736 24.0261 3.33313 23.687 3.33313 23.3333C3.33208 23.1547 3.36695 22.9776 3.43567 22.8127C3.50438 22.6478 3.60554 22.4984 3.73313 22.3733C3.98361 22.1319 4.31856 21.9979 4.66646 22H5.34646C8.77008 21.9986 12.1319 21.0881 15.0883 19.3616C18.0447 17.6351 20.4896 15.1545 22.1731 12.1733C22.2541 12.0271 22.3647 11.8993 22.4978 11.7983C22.631 11.6973 22.7838 11.6252 22.9465 11.5867C23.2827 11.4944 23.6416 11.5375 23.9465 11.7067C24.2524 11.8711 24.4821 12.1484 24.5866 12.4796C24.6912 12.8108 24.6625 13.1697 24.5065 13.48H24.4931Z" fill="white"/>
</svg>
