<svg width="25" height="25" viewBox="0 0 25 25" fill="none" xmlns="http://www.w3.org/2000/svg">
<path d="M7.22917 5.20742C7.22889 5.75996 7.00913 6.28975 6.61824 6.68026C6.22734 7.07076 5.69733 7.28999 5.14479 7.28971C4.59226 7.28944 4.06246 7.06968 3.67196 6.67878C3.28145 6.28789 3.06222 5.75787 3.0625 5.20534C3.06278 4.6528 3.28253 4.12301 3.67343 3.7325C4.06433 3.342 4.59434 3.12277 5.14688 3.12305C5.69941 3.12332 6.2292 3.34308 6.61971 3.73398C7.01021 4.12487 7.22944 4.65489 7.22917 5.20742ZM7.29167 8.83242H3.125V21.8741H7.29167V8.83242ZM13.875 8.83242H9.72917V21.8741H13.8333V15.0303C13.8333 11.2178 18.8021 10.8637 18.8021 15.0303V21.8741H22.9167V13.6137C22.9167 7.18659 15.5625 7.42617 13.8333 10.5824L13.875 8.83242Z" fill="white"/>
</svg>
