<svg width="80" height="80" viewBox="0 0 80 80" fill="none" xmlns="http://www.w3.org/2000/svg">
<path d="M69.6665 6.66675H10.3332C9.36071 6.66675 8.42808 7.05306 7.74045 7.74069C7.05281 8.42832 6.6665 9.36095 6.6665 10.3334V69.6667C6.6665 70.1483 6.76135 70.6251 6.94561 71.0699C7.12988 71.5148 7.39996 71.919 7.74045 72.2595C8.08093 72.6 8.48514 72.87 8.93 73.0543C9.37486 73.2386 9.85166 73.3334 10.3332 73.3334H42.2665V47.5001H33.5998V37.5001H42.2665V30.0001C42.087 28.2393 42.2949 26.4605 42.8756 24.7885C43.4563 23.1166 44.3957 21.5919 45.6281 20.3215C46.8604 19.051 48.3558 18.0656 50.0093 17.4342C51.6628 16.8029 53.4344 16.5409 55.1998 16.6667C57.7943 16.6508 60.3874 16.7843 62.9665 17.0667V26.0667H57.6665C53.4665 26.0667 52.6665 28.0667 52.6665 30.9667V37.4001H62.6665L61.3665 47.4001H52.6665V73.3334H69.6665C70.148 73.3334 70.6248 73.2386 71.0697 73.0543C71.5145 72.87 71.9188 72.6 72.2592 72.2595C72.5997 71.919 72.8698 71.5148 73.0541 71.0699C73.2383 70.6251 73.3332 70.1483 73.3332 69.6667V10.3334C73.3332 9.8519 73.2383 9.3751 73.0541 8.93024C72.8698 8.48538 72.5997 8.08117 72.2592 7.74069C71.9188 7.40021 71.5145 7.13012 71.0697 6.94586C70.6248 6.76159 70.148 6.66675 69.6665 6.66675Z" fill="#FFAA4C"/>
</svg>
