<svg width="50" height="48" viewBox="0 0 50 48" fill="none" xmlns="http://www.w3.org/2000/svg">
<path d="M24.9983 6.53804e-06C26.203 -0.000477981 27.4062 0.0863979 28.5985 0.259978C34.5431 1.13354 39.9772 4.13609 43.907 8.71849C47.8368 13.3009 49.9997 19.1569 50 25.2155C50.0015 29.7585 48.7855 34.2175 46.4807 38.1208C44.1758 42.0241 40.8678 45.2265 36.9065 47.3895C36.7681 47.4654 36.6283 47.5395 36.4873 47.6117C36.3582 47.6811 36.2244 47.7413 36.0869 47.7917C35.6903 47.9306 35.2734 48.001 34.8536 48C34.3604 48.0001 33.8721 47.9022 33.4165 47.7119C32.9608 47.5216 32.5468 47.2427 32.1981 46.891C31.8494 46.5394 31.5727 46.1219 31.384 45.6624C31.1953 45.2029 31.0981 44.7104 31.0981 44.213C31.098 43.538 31.2766 42.8752 31.6155 42.2931C31.9545 41.7111 32.4414 41.2309 33.026 40.9022C33.0811 40.8722 33.1433 40.8388 33.2033 40.8088C33.2111 40.8038 33.2182 40.8011 33.2259 40.7961C36.0277 39.2912 38.3708 37.046 40.0043 34.301C41.6378 31.5561 42.5001 28.4146 42.4989 25.2133C42.5015 22.5752 41.9164 19.9703 40.787 17.5908C39.6575 15.2114 38.0125 13.1182 35.9734 11.4659C35.778 11.2808 35.5653 11.1153 35.3383 10.9715C35.3333 10.9665 35.3284 10.9615 35.3234 10.9615C33.8566 10.0171 31.8043 9.94708 29.8252 11.3909C27.8461 13.9374 28.4729 16.6799 30.2003 18.1126C30.2554 18.1554 30.3104 18.1982 30.3655 18.2415C31.7824 19.3524 32.8284 20.8739 33.3628 22.6018C33.8973 24.3297 33.8947 26.1812 33.3554 27.9075C32.9749 29.2117 32.2884 30.4043 31.354 31.3843C30.4197 32.3642 29.265 33.1026 27.9876 33.5371C26.6634 34.0142 25.2448 34.1636 23.8514 33.9728C22.4579 33.782 21.1303 33.2566 19.9801 32.4407C18.8298 31.6248 17.8907 30.5423 17.2415 29.2842C16.5924 28.0261 16.2522 26.6293 16.2497 25.211C16.2479 23.8656 16.5521 22.5376 17.139 21.3294C17.7259 20.1211 18.5798 19.0647 19.635 18.2415C19.6901 18.1987 19.7452 18.156 19.7975 18.1126C20.5721 17.4639 21.1062 16.57 21.3133 15.5762C21.5203 14.5825 21.3879 13.5474 20.9377 12.6391C20.548 11.7768 19.8578 11.0888 18.9983 10.7059C18.3141 10.3802 17.5599 10.2327 16.8046 10.277C16.0493 10.3213 15.3171 10.5558 14.6749 10.9592C14.6699 10.9592 14.665 10.9642 14.66 10.9692C14.4395 11.1085 14.2327 11.2689 14.0426 11.4481C11.9985 13.1005 10.3492 15.1953 9.21654 17.5776C8.08392 19.9598 7.49706 22.5685 7.49939 25.2105C7.49824 28.4119 8.36059 31.5533 9.99408 34.2983C11.6276 37.0433 13.9707 39.2884 16.7724 40.7933C16.8402 40.826 16.9052 40.861 16.9724 40.8988C17.6133 41.2592 18.1356 41.801 18.4749 42.4573C18.8141 43.1135 18.9555 43.8556 18.8815 44.5919C18.7908 45.4605 18.4068 46.2712 17.7939 46.8882C17.1809 47.5051 16.3763 47.8908 15.5149 47.9805C14.9672 48.0356 14.4141 47.9685 13.8949 47.7839C13.7656 47.7369 13.6396 47.6813 13.5176 47.6172C13.3854 47.5487 13.2536 47.4785 13.1221 47.4067C13.1183 47.4035 13.114 47.4009 13.1095 47.3989C9.14371 45.2373 5.83148 42.0342 3.52363 38.1288C1.21578 34.2234 -0.00175253 29.7613 8.94443e-07 25.2149C0.000345177 19.1563 2.1632 13.3003 6.09301 8.71793C10.0228 4.13553 15.4569 1.13298 21.4015 0.259421C22.5927 0.0861807 23.7948 -0.000508394 24.9983 6.53804e-06Z" fill="#0B64AF"/>
</svg>
