<svg width="210" height="48" viewBox="0 0 210 48" fill="none" xmlns="http://www.w3.org/2000/svg">
<path d="M24.9983 6.53804e-06C26.203 -0.000477981 27.4062 0.0863979 28.5985 0.259978C34.5431 1.13354 39.9772 4.13609 43.907 8.71849C47.8368 13.3009 49.9997 19.1569 50 25.2155C50.0015 29.7585 48.7855 34.2175 46.4807 38.1208C44.1758 42.0241 40.8678 45.2265 36.9065 47.3895C36.7681 47.4654 36.6283 47.5395 36.4873 47.6117C36.3582 47.6811 36.2244 47.7413 36.0869 47.7917C35.6903 47.9306 35.2734 48.001 34.8536 48C34.3604 48.0001 33.8721 47.9022 33.4165 47.7119C32.9608 47.5216 32.5468 47.2427 32.1981 46.891C31.8494 46.5394 31.5727 46.1219 31.384 45.6624C31.1953 45.2029 31.0981 44.7104 31.0981 44.213C31.098 43.538 31.2766 42.8752 31.6155 42.2931C31.9545 41.7111 32.4414 41.2309 33.026 40.9022C33.0811 40.8722 33.1433 40.8388 33.2033 40.8088C33.2111 40.8038 33.2182 40.8011 33.2259 40.7961C36.0277 39.2912 38.3708 37.046 40.0043 34.301C41.6378 31.5561 42.5001 28.4146 42.4989 25.2133C42.5015 22.5752 41.9164 19.9703 40.787 17.5908C39.6575 15.2114 38.0125 13.1182 35.9734 11.4659C35.778 11.2808 35.5653 11.1153 35.3383 10.9715C35.3333 10.9665 35.3284 10.9615 35.3234 10.9615C33.8566 10.0171 31.8043 9.94708 29.8252 11.3909C27.8461 13.9374 28.4729 16.6799 30.2003 18.1126C30.2554 18.1554 30.3104 18.1982 30.3655 18.2415C31.7824 19.3524 32.8284 20.8739 33.3628 22.6018C33.8973 24.3297 33.8947 26.1812 33.3554 27.9075C32.9749 29.2117 32.2884 30.4043 31.354 31.3843C30.4197 32.3642 29.265 33.1026 27.9876 33.5371C26.6634 34.0142 25.2448 34.1636 23.8514 33.9728C22.4579 33.782 21.1303 33.2566 19.9801 32.4407C18.8298 31.6248 17.8907 30.5423 17.2415 29.2842C16.5924 28.0261 16.2522 26.6293 16.2497 25.211C16.2479 23.8656 16.5521 22.5376 17.139 21.3294C17.7259 20.1211 18.5798 19.0647 19.635 18.2415C19.6901 18.1987 19.7452 18.156 19.7975 18.1126C20.5721 17.4639 21.1062 16.57 21.3133 15.5762C21.5203 14.5825 21.3879 13.5474 20.9377 12.6391C20.548 11.7768 19.8578 11.0888 18.9983 10.7059C18.3141 10.3802 17.5599 10.2327 16.8046 10.277C16.0493 10.3213 15.3171 10.5558 14.6749 10.9592C14.6699 10.9592 14.665 10.9642 14.66 10.9692C14.4395 11.1085 14.2327 11.2689 14.0426 11.4481C11.9985 13.1005 10.3492 15.1953 9.21654 17.5776C8.08392 19.9598 7.49706 22.5685 7.49939 25.2105C7.49824 28.4119 8.36059 31.5533 9.99408 34.2983C11.6276 37.0433 13.9707 39.2884 16.7724 40.7933C16.8402 40.826 16.9052 40.861 16.9724 40.8988C17.6133 41.2592 18.1356 41.801 18.4749 42.4573C18.8141 43.1135 18.9555 43.8556 18.8815 44.5919C18.7908 45.4605 18.4068 46.2712 17.7939 46.8882C17.1809 47.5051 16.3763 47.8908 15.5149 47.9805C14.9672 48.0356 14.4141 47.9685 13.8949 47.7839C13.7656 47.7369 13.6396 47.6813 13.5176 47.6172C13.3854 47.5487 13.2536 47.4785 13.1221 47.4067C13.1183 47.4035 13.114 47.4009 13.1095 47.3989C9.14371 45.2373 5.83148 42.0342 3.52363 38.1288C1.21578 34.2234 -0.00175253 29.7613 8.94443e-07 25.2149C0.000345177 19.1563 2.1632 13.3003 6.09301 8.71793C10.0228 4.13553 15.4569 1.13298 21.4015 0.259421C22.5927 0.0861807 23.7948 -0.000508394 24.9983 6.53804e-06Z" fill="#0B64AF"/>
<path d="M70.024 16.8807C67.9791 16.8807 66.3958 17.6624 65.274 19.2259C64.1522 20.7775 63.5913 22.945 63.5913 25.7284C63.5913 31.5203 65.7355 34.4162 70.024 34.4162C71.8235 34.4162 74.0028 33.9602 76.5618 33.0482V37.6675C74.4585 38.5558 72.1098 39 69.5157 39C65.7881 39 62.937 37.857 60.9622 35.5711C58.9874 33.2733 58 29.9805 58 25.6929C58 22.9924 58.4849 20.6294 59.4548 18.6041C60.4247 16.5668 61.8152 15.0093 63.6264 13.9315C65.4493 12.8418 67.5818 12.297 70.024 12.297C72.5129 12.297 75.0135 12.9069 77.5258 14.1269L75.7731 18.6041C74.8149 18.1421 73.8509 17.7394 72.881 17.3959C71.9111 17.0525 70.9588 16.8807 70.024 16.8807Z" fill="#0E1731"/>
<path d="M95.4917 38.6447L94.7731 36.1041H94.4926C93.92 37.0279 93.1079 37.7445 92.0563 38.2538C91.0046 38.7513 89.8069 39 88.4631 39C86.1611 39 84.4259 38.3782 83.2574 37.1345C82.0889 35.879 81.5046 34.0787 81.5046 31.7335V18.7817H86.8506V30.3832C86.8506 31.8164 87.1018 32.8942 87.6042 33.6168C88.1067 34.3274 88.9071 34.6827 90.0055 34.6827C91.5012 34.6827 92.5821 34.1794 93.2482 33.1726C93.9142 32.154 94.2472 30.4721 94.2472 28.1269V18.7817H99.5932V38.6447H95.4917Z" fill="#0E1731"/>
<path d="M110.548 38.6447H105.202V11H110.548V38.6447Z" fill="#0E1731"/>
<path d="M124.43 34.6827C125.365 34.6827 126.486 34.4755 127.795 34.0609V38.0939C126.463 38.698 124.827 39 122.887 39C120.749 39 119.189 38.4552 118.208 37.3655C117.238 36.264 116.753 34.6176 116.753 32.4264V22.8503H114.194V20.5584L117.138 18.7462L118.681 14.5533H122.099V18.7817H127.585V22.8503H122.099V32.4264C122.099 33.1963 122.309 33.7648 122.73 34.132C123.162 34.4992 123.729 34.6827 124.43 34.6827Z" fill="#0E1731"/>
<path d="M145.656 38.6447L144.937 36.1041H144.657C144.084 37.0279 143.272 37.7445 142.22 38.2538C141.169 38.7513 139.971 39 138.627 39C136.325 39 134.59 38.3782 133.422 37.1345C132.253 35.879 131.669 34.0787 131.669 31.7335V18.7817H137.015V30.3832C137.015 31.8164 137.266 32.8942 137.768 33.6168C138.271 34.3274 139.071 34.6827 140.17 34.6827C141.665 34.6827 142.746 34.1794 143.412 33.1726C144.078 32.154 144.411 30.4721 144.411 28.1269V18.7817H149.757V38.6447H145.656Z" fill="#0E1731"/>
<path d="M166.304 18.4086C167.028 18.4086 167.63 18.4619 168.109 18.5685L167.706 23.6497C167.273 23.5313 166.748 23.4721 166.128 23.4721C164.422 23.4721 163.09 23.9162 162.132 24.8046C161.185 25.6929 160.712 26.9365 160.712 28.5355V38.6447H155.366V18.7817H159.415L160.204 22.1218H160.467C161.074 21.0085 161.892 20.1142 162.921 19.4391C163.961 18.7521 165.088 18.4086 166.304 18.4086Z" fill="#0E1731"/>
<path d="M179.782 22.264C178.649 22.264 177.761 22.6311 177.118 23.3655C176.475 24.088 176.107 25.1184 176.014 26.4569H183.516C183.492 25.1184 183.148 24.088 182.482 23.3655C181.815 22.6311 180.916 22.264 179.782 22.264ZM180.536 39C177.381 39 174.915 38.1176 173.139 36.3528C171.363 34.588 170.475 32.0888 170.475 28.8553C170.475 25.5271 171.293 22.9569 172.929 21.1447C174.577 19.3206 176.849 18.4086 179.747 18.4086C182.517 18.4086 184.673 19.2081 186.215 20.8071C187.757 22.4061 188.529 24.6151 188.529 27.434V30.0635H175.891C175.95 31.6032 176.399 32.8054 177.241 33.6701C178.082 34.5347 179.262 34.967 180.781 34.967C181.962 34.967 183.077 34.8426 184.129 34.5939C185.181 34.3452 186.279 33.9484 187.424 33.4036V37.5964C186.49 38.0702 185.49 38.4196 184.427 38.6447C183.364 38.8816 182.067 39 180.536 39Z" fill="#0E1731"/>
<path d="M199.08 39C196.778 39 194.967 38.0939 193.647 36.2817C192.338 34.4695 191.684 31.9585 191.684 28.7487C191.684 25.4915 192.35 22.9569 193.682 21.1447C195.026 19.3206 196.872 18.4086 199.22 18.4086C201.686 18.4086 203.567 19.3799 204.864 21.3223H205.04C204.771 19.8418 204.637 18.5212 204.637 17.3604V11H210V38.6447H205.899L204.864 36.0685H204.637C203.421 38.0228 201.569 39 199.08 39ZM200.956 34.6827C202.323 34.6827 203.322 34.28 203.953 33.4746C204.596 32.6692 204.946 31.3012 205.005 29.3706V28.7843C205.005 26.6523 204.677 25.1244 204.023 24.2005C203.38 23.2767 202.329 22.8147 200.868 22.8147C199.676 22.8147 198.747 23.33 198.081 24.3604C197.427 25.379 197.1 26.8655 197.1 28.8198C197.1 30.7741 197.433 32.2428 198.099 33.2259C198.765 34.1971 199.717 34.6827 200.956 34.6827Z" fill="#0E1731"/>
</svg>
